<svg width="56" height="52" viewBox="0 0 56 52" fill="none" xmlns="http://www.w3.org/2000/svg">
  <path
    d="M55.6473 24.4645L50.5401 19.7276L30.1901 0.833014C29.9053 0.568918 29.5673 0.359424 29.1953 0.216494C28.8233 0.0735651 28.4246 0 28.0219 0C27.6192 0 27.2205 0.0735651 26.8485 0.216494C26.4765 0.359424 26.1385 0.568918 25.8537 0.833014L5.47303 19.7154L0.352673 24.4645C0.120562 24.6955 -0.00580168 25.0011 0.000204722 25.3168C0.00621112 25.6326 0.144118 25.9338 0.384873 26.1571C0.625627 26.3804 0.950431 26.5083 1.29086 26.5139C1.63128 26.5195 1.96075 26.4023 2.20984 26.187L5.08758 23.5179V49.1563C5.08758 49.9105 5.41062 50.6338 5.98562 51.1671C6.56062 51.7004 7.34049 52 8.15367 52H20.1158C20.929 52 21.7088 51.7004 22.2838 51.1671C22.8588 50.6338 23.1819 49.9105 23.1819 49.1563V32.9063C23.1819 32.7986 23.228 32.6952 23.3102 32.6191C23.3923 32.5429 23.5037 32.5001 23.6199 32.5001H32.3801C32.4963 32.5001 32.6077 32.5429 32.6898 32.6191C32.772 32.6952 32.8181 32.7986 32.8181 32.9063V49.1563C32.8181 49.9105 33.1412 50.6338 33.7162 51.1671C34.2912 51.7004 35.071 52 35.8842 52H47.8595C48.2621 52 48.6608 51.9264 49.0328 51.7835C49.4048 51.6406 49.7428 51.4312 50.0275 51.1671C50.3122 50.903 50.5381 50.5895 50.6922 50.2445C50.8463 49.8995 50.9256 49.5297 50.9256 49.1563V23.5301L53.7902 26.187C54.0393 26.4023 54.3687 26.5195 54.7091 26.5139C55.0496 26.5083 55.3744 26.3804 55.6151 26.1571C55.8559 25.9338 55.9938 25.6326 55.9998 25.3168C56.0058 25.0011 55.8794 24.6955 55.6473 24.4645ZM48.2975 49.1563C48.2975 49.264 48.2513 49.3673 48.1692 49.4435C48.0871 49.5197 47.9756 49.5625 47.8595 49.5625H35.8842C35.7681 49.5625 35.6566 49.5197 35.5745 49.4435C35.4924 49.3673 35.4462 49.264 35.4462 49.1563V32.9063C35.4462 32.1521 35.1232 31.4288 34.5482 30.8955C33.9732 30.3622 33.1933 30.0626 32.3801 30.0626H23.6199C22.8067 30.0626 22.0268 30.3622 21.4518 30.8955C20.8768 31.4288 20.5538 32.1521 20.5538 32.9063V49.1563C20.5538 49.264 20.5076 49.3673 20.4255 49.4435C20.3434 49.5197 20.2319 49.5625 20.1158 49.5625H8.15367C8.0375 49.5625 7.92609 49.5197 7.84395 49.4435C7.7618 49.3673 7.71566 49.264 7.71566 49.1563V21.0845L27.689 2.55551C27.7711 2.47984 27.8821 2.43737 27.9978 2.43737C28.1135 2.43737 28.2245 2.47984 28.3066 2.55551L48.2931 21.0926L48.2975 49.1563Z"
    fill="#7C6DFF" />
</svg>