<svg width="22" height="22" viewBox="0 0 22 22" fill="none" xmlns="http://www.w3.org/2000/svg">
  <path
    d="M17.7693 22.0003H4.23084C3.5576 22.0003 2.91193 21.7106 2.43588 21.1949C1.95983 20.6791 1.69238 19.9797 1.69238 19.2503V10.0837C1.69238 9.84054 1.78153 9.60739 1.94022 9.43548C2.0989 9.26357 2.31412 9.16699 2.53854 9.16699C2.76295 9.16699 2.97817 9.26357 3.13686 9.43548C3.29554 9.60739 3.38469 9.84054 3.38469 10.0837V19.2503C3.38469 19.4934 3.47384 19.7266 3.63252 19.8985C3.79121 20.0704 4.00643 20.167 4.23084 20.167H17.7693C17.9937 20.167 18.2089 20.0704 18.3676 19.8985C18.5263 19.7266 18.6155 19.4934 18.6155 19.2503V10.0837C18.6155 9.84054 18.7046 9.60739 18.8633 9.43548C19.022 9.26357 19.2372 9.16699 19.4616 9.16699C19.686 9.16699 19.9013 9.26357 20.0599 9.43548C20.2186 9.60739 20.3078 9.84054 20.3078 10.0837V19.2503C20.3078 19.9797 20.0403 20.6791 19.5643 21.1949C19.0882 21.7106 18.4425 22.0003 17.7693 22.0003Z"
    fill="white" />
  <path
    d="M10.1538 21.9997H5.92306C5.69864 21.9997 5.48342 21.9031 5.32474 21.7312C5.16605 21.5593 5.0769 21.3261 5.0769 21.083V15.583C5.0769 14.8537 5.34435 14.1542 5.8204 13.6385C6.29646 13.1227 6.94212 12.833 7.61537 12.833H8.46152C9.13476 12.833 9.78043 13.1227 10.2565 13.6385C10.7325 14.1542 11 14.8537 11 15.583V21.083C11 21.3261 10.9108 21.5593 10.7521 21.7312C10.5935 21.9031 10.3782 21.9997 10.1538 21.9997ZM6.76921 20.1663H9.30767V15.583C9.30767 15.3399 9.21853 15.1067 9.05984 14.9348C8.90116 14.7629 8.68593 14.6663 8.46152 14.6663H7.61537C7.39095 14.6663 7.17573 14.7629 7.01704 14.9348C6.85836 15.1067 6.76921 15.3399 6.76921 15.583V20.1663Z"
    fill="white" />
  <path
    d="M18.6154 11C17.7177 11 16.8568 10.6137 16.2221 9.92606C15.5874 9.23843 15.2308 8.30579 15.2308 7.33333C15.2308 7.09022 15.3199 6.85706 15.4786 6.68515C15.6373 6.51324 15.8525 6.41667 16.0769 6.41667C16.3013 6.41667 16.5166 6.51324 16.6752 6.68515C16.8339 6.85706 16.9231 7.09022 16.9231 7.33333C16.9231 7.81956 17.1014 8.28588 17.4187 8.6297C17.7361 8.97351 18.1666 9.16667 18.6154 9.16667C19.0642 9.16667 19.4947 8.97351 19.812 8.6297C20.1294 8.28588 20.3077 7.81956 20.3077 7.33333V6.63667L18.0908 1.83333H3.90923L1.69231 6.63667V7.33333C1.69231 7.81956 1.8706 8.28588 2.18797 8.6297C2.50534 8.97351 2.93579 9.16667 3.38462 9.16667C3.83344 9.16667 4.26389 8.97351 4.58126 8.6297C4.89863 8.28588 5.07692 7.81956 5.07692 7.33333C5.07692 7.09022 5.16607 6.85706 5.32476 6.68515C5.48344 6.51324 5.69866 6.41667 5.92308 6.41667C6.14749 6.41667 6.36271 6.51324 6.5214 6.68515C6.68008 6.85706 6.76923 7.09022 6.76923 7.33333C6.76923 8.30579 6.41264 9.23843 5.7779 9.92606C5.14316 10.6137 4.28227 11 3.38462 11C2.48696 11 1.62607 10.6137 0.991331 9.92606C0.356592 9.23843 0 8.30579 0 7.33333V6.41667C0.000794185 6.27317 0.0326751 6.13188 0.0930768 6.00417L2.63154 0.504167C2.70185 0.352995 2.80944 0.225869 2.94236 0.136879C3.07528 0.0478899 3.22836 0.000513063 3.38462 0H18.6154C18.7716 0.000513063 18.9247 0.0478899 19.0576 0.136879C19.1906 0.225869 19.2981 0.352995 19.3685 0.504167L21.9069 6.00417C21.9673 6.13188 21.9992 6.27317 22 6.41667V7.33333C22 8.30579 21.6434 9.23843 21.0087 9.92606C20.3739 10.6137 19.513 11 18.6154 11Z"
    fill="white" />
  <path
    d="M8.46152 11.0003C7.56386 11.0003 6.70297 10.614 6.06824 9.92638C5.4335 9.23875 5.0769 8.30612 5.0769 7.33366C5.0769 7.09054 5.16605 6.85739 5.32474 6.68548C5.48342 6.51357 5.69864 6.41699 5.92306 6.41699C6.14747 6.41699 6.36269 6.51357 6.52138 6.68548C6.68006 6.85739 6.76921 7.09054 6.76921 7.33366C6.76921 7.81989 6.94751 8.2862 7.26488 8.63002C7.58225 8.97384 8.01269 9.16699 8.46152 9.16699C8.91035 9.16699 9.34079 8.97384 9.65816 8.63002C9.97553 8.2862 10.1538 7.81989 10.1538 7.33366C10.1538 7.09054 10.243 6.85739 10.4017 6.68548C10.5603 6.51357 10.7756 6.41699 11 6.41699C11.2244 6.41699 11.4396 6.51357 11.5983 6.68548C11.757 6.85739 11.8461 7.09054 11.8461 7.33366C11.8461 8.30612 11.4895 9.23875 10.8548 9.92638C10.2201 10.614 9.35918 11.0003 8.46152 11.0003Z"
    fill="white" />
  <path
    d="M13.5384 11.0003C12.6408 11.0003 11.7799 10.614 11.1451 9.92638C10.5104 9.23875 10.1538 8.30612 10.1538 7.33366C10.1538 7.09054 10.243 6.85739 10.4016 6.68548C10.5603 6.51357 10.7755 6.41699 11 6.41699C11.2244 6.41699 11.4396 6.51357 11.5983 6.68548C11.757 6.85739 11.8461 7.09054 11.8461 7.33366C11.8461 7.81989 12.0244 8.2862 12.3418 8.63002C12.6592 8.97384 13.0896 9.16699 13.5384 9.16699C13.9873 9.16699 14.4177 8.97384 14.7351 8.63002C15.0524 8.2862 15.2307 7.81989 15.2307 7.33366C15.2307 7.09054 15.3199 6.85739 15.4786 6.68548C15.6372 6.51357 15.8525 6.41699 16.0769 6.41699C16.3013 6.41699 16.5165 6.51357 16.6752 6.68548C16.8339 6.85739 16.923 7.09054 16.923 7.33366C16.923 8.30612 16.5664 9.23875 15.9317 9.92638C15.297 10.614 14.4361 11.0003 13.5384 11.0003Z"
    fill="white" />
  <path
    d="M16.077 15.5833H13.5385C13.3141 15.5833 13.0989 15.4868 12.9402 15.3148C12.7815 15.1429 12.6924 14.9098 12.6924 14.6667C12.6924 14.4236 12.7815 14.1904 12.9402 14.0185C13.0989 13.8466 13.3141 13.75 13.5385 13.75H16.077C16.3014 13.75 16.5166 13.8466 16.6753 14.0185C16.834 14.1904 16.9232 14.4236 16.9232 14.6667C16.9232 14.9098 16.834 15.1429 16.6753 15.3148C16.5166 15.4868 16.3014 15.5833 16.077 15.5833Z"
    fill="white" />
</svg>