<svg width="22" height="22" viewBox="0 0 22 22" fill="none" xmlns="http://www.w3.org/2000/svg">
  <path
    d="M1.02501 22H0.820885C0.603173 22 0.394378 21.9011 0.240432 21.7252C0.0864859 21.5492 0 21.3106 0 21.0617V14.1658C0 9.12214 3.59055 5.01739 8.00308 5.01739H10.7509V0.935781C10.7513 0.754863 10.7975 0.577945 10.8838 0.426331C10.9702 0.274718 11.0931 0.154876 11.2376 0.0812391C11.3822 0.00760205 11.5423 -0.01669 11.6987 0.0112887C11.8551 0.0392674 12.001 0.118324 12.119 0.238936L21.7288 10.1393C21.8142 10.2272 21.8824 10.3347 21.9291 10.4548C21.9759 10.5748 22 10.7047 22 10.8361C22 10.9675 21.9759 11.0974 21.9291 11.2174C21.8824 11.3375 21.8142 11.445 21.7288 11.5329L12.1217 21.4339C12.0037 21.5545 11.8577 21.6336 11.7013 21.6616C11.5449 21.6895 11.3847 21.6652 11.2401 21.5915C11.0955 21.5177 10.9727 21.3978 10.8863 21.2461C10.8 21.0944 10.7539 20.9174 10.7536 20.7364V16.6523H7.08807C5.88422 16.652 4.71421 17.1076 3.76091 17.948C2.80762 18.7883 2.12476 19.966 1.81908 21.2969C1.77351 21.4981 1.67082 21.6762 1.52711 21.8035C1.3834 21.9307 1.2068 21.9998 1.02501 22ZM7.08807 14.7757H11.5717C11.7895 14.7757 11.9983 14.8746 12.1522 15.0505C12.3061 15.2265 12.3926 15.4652 12.3926 15.714V18.6252L19.953 10.8349L12.3926 3.04508V5.95569C12.3926 6.20454 12.3061 6.4432 12.1522 6.61917C11.9983 6.79513 11.7895 6.89399 11.5717 6.89399H8.00308C6.31644 6.89614 4.69943 7.66299 3.50684 9.02627C2.31426 10.3896 1.64351 12.2379 1.64177 14.1658V17.6913C2.30726 16.7789 3.14003 16.0448 4.08117 15.541C5.02231 15.0372 6.04882 14.7759 7.08807 14.7757Z"
    fill="white" />
</svg>